<svg width="1600" height="900" viewBox="0 0 1600 900" fill="none" xmlns="http://www.w3.org/2000/svg">
  <defs>
    <linearGradient id="bg" x1="120" y1="40" x2="1480" y2="860" gradientUnits="userSpaceOnUse">
      <stop stop-color="#FFF8FB"/>
      <stop offset="1" stop-color="#F3F7FF"/>
    </linearGradient>
  </defs>
  <rect width="1600" height="900" fill="url(#bg)"/>
  <circle cx="176" cy="160" r="126" fill="#FCE7F3"/>
  <circle cx="1430" cy="734" r="180" fill="#E0E7FF"/>

  <text x="96" y="96" fill="#171217" font-family="Space Grotesk, sans-serif" font-size="56" font-weight="700">SDK Integration Shape</text>
  <text x="96" y="142" fill="#6F6570" font-family="Space Grotesk, sans-serif" font-size="24">Keep the dApp UI, SDK layer, and smart account context clearly separated</text>

  <rect x="122" y="226" rx="36" width="332" height="396" fill="#FFFFFF" stroke="#F2C8DD" stroke-width="2"/>
  <text x="164" y="284" fill="#C75685" font-family="Space Grotesk, sans-serif" font-size="18" font-weight="700">DAPP UI</text>
  <text x="164" y="336" fill="#171217" font-family="Space Grotesk, sans-serif" font-size="34" font-weight="700">RainbowKit / wagmi</text>
  <rect x="164" y="374" rx="18" width="250" height="42" fill="#FDF2F8"/>
  <rect x="164" y="430" rx="18" width="226" height="42" fill="#FDF2F8"/>
  <rect x="164" y="486" rx="18" width="244" height="42" fill="#FDF2F8"/>
  <text x="192" y="401" fill="#171217" font-family="Space Grotesk, sans-serif" font-size="18" font-weight="700">createMossConnector()</text>
  <text x="192" y="457" fill="#171217" font-family="Space Grotesk, sans-serif" font-size="18" font-weight="700">Connection and session UI</text>
  <text x="192" y="513" fill="#171217" font-family="Space Grotesk, sans-serif" font-size="18" font-weight="700">Existing wallet UX stays intact</text>

  <rect x="634" y="200" rx="40" width="332" height="448" fill="#FFFFFF" stroke="#CDD7FF" stroke-width="2"/>
  <text x="676" y="258" fill="#5566DA" font-family="Space Grotesk, sans-serif" font-size="18" font-weight="700">SDK LAYER</text>
  <text x="676" y="310" fill="#171217" font-family="Space Grotesk, sans-serif" font-size="34" font-weight="700">MossAccountOSSDK</text>
  <rect x="676" y="348" rx="18" width="238" height="42" fill="#EEF2FF"/>
  <rect x="676" y="404" rx="18" width="236" height="42" fill="#EEF2FF"/>
  <rect x="676" y="460" rx="18" width="214" height="42" fill="#EEF2FF"/>
  <text x="704" y="375" fill="#171217" font-family="Space Grotesk, sans-serif" font-size="18" font-weight="700">Address computation</text>
  <text x="704" y="431" fill="#171217" font-family="Space Grotesk, sans-serif" font-size="18" font-weight="700">Create, sign, read, execute</text>
  <text x="704" y="487" fill="#171217" font-family="Space Grotesk, sans-serif" font-size="18" font-weight="700">Provider wrapping</text>
  <rect x="676" y="542" rx="20" width="250" height="56" fill="#F7F8FF"/>
  <text x="708" y="577" fill="#6F6570" font-family="Space Grotesk, sans-serif" font-size="20">Deployments + RPC + chain config</text>

  <rect x="1146" y="226" rx="36" width="332" height="396" fill="#FFFFFF" stroke="#D8EBD9" stroke-width="2"/>
  <text x="1188" y="284" fill="#1D9C63" font-family="Space Grotesk, sans-serif" font-size="18" font-weight="700">SMART ACCOUNT</text>
  <text x="1188" y="336" fill="#171217" font-family="Space Grotesk, sans-serif" font-size="34" font-weight="700">Execution context</text>
  <rect x="1188" y="374" rx="18" width="198" height="42" fill="#E9F8F0"/>
  <rect x="1188" y="430" rx="18" width="222" height="42" fill="#E9F8F0"/>
  <rect x="1188" y="486" rx="18" width="230" height="42" fill="#E9F8F0"/>
  <text x="1216" y="401" fill="#171217" font-family="Space Grotesk, sans-serif" font-size="18" font-weight="700">ERC-1271 signature</text>
  <text x="1216" y="457" fill="#171217" font-family="Space Grotesk, sans-serif" font-size="18" font-weight="700">execute() and validation</text>
  <text x="1216" y="513" fill="#171217" font-family="Space Grotesk, sans-serif" font-size="18" font-weight="700">Registry-aware capability checks</text>

  <path d="M472 424H604" stroke="#171217" stroke-width="5" stroke-linecap="round" stroke-dasharray="10 12"/>
  <path d="M984 424H1116" stroke="#171217" stroke-width="5" stroke-linecap="round" stroke-dasharray="10 12"/>
  <text x="504" y="404" fill="#6F6570" font-family="Space Grotesk, sans-serif" font-size="16">bridge</text>
  <text x="1018" y="404" fill="#6F6570" font-family="Space Grotesk, sans-serif" font-size="16">execute</text>

  <rect x="318" y="704" rx="34" width="964" height="98" fill="#171217"/>
  <text x="370" y="764" fill="#FFFFFF" font-family="Space Grotesk, sans-serif" font-size="30" font-weight="700">Goal: expose the smart-wallet context without forcing teams to replace their existing wallet UX</text>
</svg>
